<svg xmlns="http://www.w3.org/2000/svg" xmlns:xlink="http://www.w3.org/1999/xlink" width="500" zoomAndPan="magnify" viewBox="0 0 375 374.999991" height="500" preserveAspectRatio="xMidYMid meet" version="1.0"><defs><clipPath id="8eff8c95a5"><path d="M 239 133 L 305 133 L 305 257 L 239 257 Z M 239 133 " clip-rule="nonzero"/></clipPath><clipPath id="c460a6241b"><path d="M 37.503906 147.566406 L 250.808594 55.066406 L 333.164062 244.976562 L 119.855469 337.476562 Z M 37.503906 147.566406 " clip-rule="nonzero"/></clipPath><clipPath id="7907a628a1"><path d="M 37.503906 147.566406 L 250.808594 55.066406 L 333.164062 244.976562 L 119.855469 337.476562 Z M 37.503906 147.566406 " clip-rule="nonzero"/></clipPath><clipPath id="a8df777a6c"><path d="M 59 125 L 127 125 L 127 250 L 59 250 Z M 59 125 " clip-rule="nonzero"/></clipPath><clipPath id="c442cbd034"><path d="M 37.503906 147.566406 L 250.808594 55.066406 L 333.164062 244.976562 L 119.855469 337.476562 Z M 37.503906 147.566406 " clip-rule="nonzero"/></clipPath><clipPath id="766c1333b4"><path d="M 37.503906 147.566406 L 250.808594 55.066406 L 333.164062 244.976562 L 119.855469 337.476562 Z M 37.503906 147.566406 " clip-rule="nonzero"/></clipPath><clipPath id="a3eb9d09d3"><path d="M 96 257 L 260 257 L 260 302 L 96 302 Z M 96 257 " clip-rule="nonzero"/></clipPath><clipPath id="30b5002228"><path d="M 37.503906 147.566406 L 250.808594 55.066406 L 333.164062 244.976562 L 119.855469 337.476562 Z M 37.503906 147.566406 " clip-rule="nonzero"/></clipPath><clipPath id="e53cb3e430"><path d="M 37.503906 147.566406 L 250.808594 55.066406 L 333.164062 244.976562 L 119.855469 337.476562 Z M 37.503906 147.566406 " clip-rule="nonzero"/></clipPath><clipPath id="ecd3488896"><path d="M 113 98 L 258 98 L 258 133 L 113 133 Z M 113 98 " clip-rule="nonzero"/></clipPath><clipPath id="40c36284f5"><path d="M 37.503906 147.566406 L 250.808594 55.066406 L 333.164062 244.976562 L 119.855469 337.476562 Z M 37.503906 147.566406 " clip-rule="nonzero"/></clipPath><clipPath id="7c4c05f87a"><path d="M 37.503906 147.566406 L 250.808594 55.066406 L 333.164062 244.976562 L 119.855469 337.476562 Z M 37.503906 147.566406 " clip-rule="nonzero"/></clipPath><clipPath id="f80f903623"><path d="M 89.390625 252.496094 L 283.171875 252.496094 L 283.171875 337.5 L 89.390625 337.5 Z M 89.390625 252.496094 " clip-rule="nonzero"/></clipPath><clipPath id="c026c1f8ff"><path d="M 167.949219 266.84375 L 206.949219 266.84375 L 206.949219 295.34375 L 167.949219 295.34375 Z M 167.949219 266.84375 " clip-rule="nonzero"/></clipPath><clipPath id="1ad1169f3f"><path d="M 123.101562 133 L 239 133 L 239 242.339844 L 123.101562 242.339844 Z M 123.101562 133 " clip-rule="nonzero"/></clipPath><clipPath id="3a948827d0"><path d="M 123.101562 139 L 183 139 L 183 228 L 123.101562 228 Z M 123.101562 139 " clip-rule="nonzero"/></clipPath><clipPath id="e5db490eb6"><path d="M 206 220 L 252 220 L 252 242.339844 L 206 242.339844 Z M 206 220 " clip-rule="nonzero"/></clipPath><clipPath id="70f1723c1b"><path d="M 159.089844 71.230469 L 211.679688 71.230469 L 211.679688 122.339844 L 159.089844 122.339844 Z M 159.089844 71.230469 " clip-rule="nonzero"/></clipPath><clipPath id="cadd9fde83"><path d="M 167.082031 82.542969 L 207.582031 82.542969 L 207.582031 105.621094 L 167.082031 105.621094 Z M 167.082031 82.542969 " clip-rule="nonzero"/></clipPath><clipPath id="4dd6176de4"><path d="M 172.332031 102.933594 L 202.613281 102.933594 L 202.613281 108.035156 L 172.332031 108.035156 Z M 172.332031 102.933594 " clip-rule="nonzero"/></clipPath></defs><rect x="-37.5" width="450" fill="#ffffff" y="-37.499999" height="449.999989" fill-opacity="1"/><rect x="-37.5" width="450" fill="#ffffff" y="-37.499999" height="449.999989" fill-opacity="1"/><g clip-path="url(#8eff8c95a5)"><g clip-path="url(#c460a6241b)"><g clip-path="url(#7907a628a1)"><path fill="#cab48b" d="M 282.109375 215.785156 C 282.304688 214.917969 282.398438 214.042969 282.394531 213.15625 C 282.390625 213.144531 282.386719 213.132812 282.378906 213.121094 C 282.699219 211.277344 282.898438 209.414062 283.074219 207.535156 C 283.210938 206.023438 283.425781 204.535156 283.613281 203.027344 C 283.800781 201.28125 283.875 199.53125 283.835938 197.777344 C 283.84375 196.824219 283.824219 195.84375 283.832031 194.875 C 283.84375 194.394531 283.855469 193.917969 283.878906 193.433594 C 283.917969 192.996094 283.921875 192.558594 283.890625 192.121094 C 283.929688 192.046875 283.949219 191.972656 283.957031 191.890625 C 284.050781 190.988281 284.214844 190.09375 284.445312 189.214844 C 284.601562 188.96875 284.773438 188.734375 284.964844 188.515625 C 285.789062 187.601562 286.769531 186.84375 287.605469 185.945312 C 288.601562 184.820312 289.46875 183.605469 290.210938 182.300781 C 291.035156 180.988281 291.761719 179.625 292.394531 178.210938 C 293.660156 175.203125 294.300781 172.066406 294.3125 168.800781 C 294.375 165.816406 294.101562 162.839844 293.992188 159.859375 C 293.890625 157.148438 293.882812 154.125 292.453125 151.730469 C 292.242188 151.386719 291.644531 151.605469 291.609375 151.976562 C 291.503906 154.667969 291.0625 157.300781 290.285156 159.875 C 289.464844 162.367188 288.183594 164.671875 287.054688 167.035156 C 285.855469 169.398438 285.011719 171.886719 284.535156 174.496094 C 284.074219 177.324219 284.0625 180.195312 283.972656 183.058594 C 283.964844 184.566406 283.808594 186.058594 283.507812 187.539062 C 283.164062 188.824219 282.90625 190.128906 282.726562 191.445312 C 282.65625 189.742188 282.667969 188.027344 282.574219 186.335938 C 282.390625 182.824219 281.539062 179.34375 280.597656 175.964844 C 280.339844 175.03125 280.058594 174.105469 279.753906 173.1875 C 279.59375 172.71875 279.441406 172.226562 279.269531 171.742188 C 279.136719 170.601562 279.105469 169.457031 279.175781 168.308594 C 279.226562 167.492188 279.320312 166.679688 279.457031 165.871094 C 279.582031 165.164062 279.777344 164.46875 279.941406 163.761719 C 280.199219 163.691406 280.359375 163.523438 280.417969 163.261719 C 280.488281 162.953125 280.535156 162.632812 280.570312 162.316406 C 282.222656 159.277344 283.851562 156.210938 284.664062 152.828125 C 285.617188 148.855469 285.1875 144.636719 284.511719 140.648438 C 284.148438 138.28125 283.453125 136.015625 282.429688 133.847656 C 282.320312 133.609375 282.136719 133.488281 281.871094 133.492188 C 281.609375 133.492188 281.425781 133.613281 281.320312 133.855469 C 279.683594 137.746094 279.234375 142.089844 279.003906 146.28125 C 278.898438 148.164062 278.78125 150.0625 278.847656 151.949219 C 278.910156 153.835938 279.097656 155.609375 279.222656 157.433594 C 279.351562 159.257812 279.484375 161.222656 279.171875 163.085938 C 279.128906 163.273438 279.171875 163.4375 279.300781 163.578125 C 278.832031 165.113281 278.582031 166.679688 278.542969 168.28125 C 278.527344 168.765625 278.53125 169.238281 278.542969 169.707031 C 277.945312 167.652344 277.496094 165.558594 276.742188 163.554688 C 276.265625 162.273438 275.675781 161.027344 275.132812 159.777344 C 274.863281 159.148438 274.617188 158.480469 274.34375 157.832031 C 274.003906 155.792969 274.320312 153.695312 274.183594 151.625 C 274.078125 150.285156 273.8125 148.972656 273.386719 147.695312 C 273 146.394531 272.5 145.136719 271.882812 143.921875 C 272.3125 143.507812 272.636719 143.027344 272.855469 142.472656 C 273.078125 141.921875 273.179688 141.347656 273.15625 140.753906 C 273.152344 139.480469 272.71875 137.953125 271.453125 137.402344 C 271.164062 137.273438 270.859375 137.207031 270.542969 137.207031 C 270.226562 137.203125 269.921875 137.265625 269.628906 137.386719 C 269.335938 137.511719 269.082031 137.6875 268.863281 137.917969 C 268.644531 138.144531 268.476562 138.410156 268.367188 138.707031 C 267.878906 139.988281 267.878906 141.273438 268.367188 142.554688 C 268.589844 143.21875 268.980469 143.757812 269.546875 144.171875 C 270.074219 144.558594 270.644531 144.640625 271.261719 144.414062 C 271.671875 145.59375 272.261719 146.722656 272.648438 147.914062 C 273.101562 149.265625 273.367188 150.65625 273.445312 152.082031 C 273.515625 153.339844 273.402344 154.648438 273.4375 155.921875 C 272.769531 154.117188 272.109375 152.300781 271.300781 150.554688 C 270.84375 149.5625 270.316406 148.609375 269.714844 147.699219 C 269.085938 146.660156 268.316406 145.738281 267.410156 144.929688 C 267.410156 143.902344 267.285156 142.890625 267.042969 141.894531 C 266.78125 140.777344 266.375 139.335938 265.308594 138.699219 C 264.246094 138.0625 262.816406 138.863281 262.390625 139.964844 C 261.914062 141.1875 262.414062 142.625 263.160156 143.625 C 263.605469 144.242188 264.175781 144.699219 264.875 144.996094 C 265.5 145.253906 266.128906 145.265625 266.761719 145.03125 C 266.730469 145.136719 266.746094 145.230469 266.8125 145.320312 C 267.535156 146.273438 268.390625 147.105469 269.0625 148.109375 C 269.691406 149.058594 270.238281 150.054688 270.699219 151.09375 C 271.433594 152.714844 272.035156 154.390625 272.730469 156.023438 C 272.644531 156.113281 272.617188 156.222656 272.648438 156.347656 C 272.988281 157.65625 273.699219 158.933594 274.238281 160.175781 C 274.410156 160.574219 274.574219 160.949219 274.742188 161.339844 C 273.433594 160.226562 271.539062 159.824219 270.027344 159.109375 C 267.789062 158.042969 266.351562 155.757812 265.496094 153.511719 C 265.476562 153.457031 265.445312 153.410156 265.394531 153.375 C 265.652344 152.933594 265.800781 152.453125 265.84375 151.945312 C 265.886719 151.433594 265.816406 150.9375 265.636719 150.460938 C 265.300781 149.441406 264.65625 148.683594 263.703125 148.191406 C 263.484375 148.082031 263.253906 148.007812 263.011719 147.976562 C 262.765625 147.945312 262.523438 147.953125 262.285156 148.003906 C 262.042969 148.054688 261.820312 148.144531 261.609375 148.273438 C 261.398438 148.398438 261.21875 148.558594 261.0625 148.746094 C 260.199219 149.746094 259.789062 151.519531 260.785156 152.558594 C 261.707031 153.523438 263.171875 153.679688 264.445312 153.660156 C 264.550781 153.777344 264.679688 153.832031 264.835938 153.824219 C 265.199219 155.015625 265.769531 156.097656 266.539062 157.078125 C 267.210938 158.054688 268.050781 158.859375 269.054688 159.492188 C 270.957031 160.59375 273.457031 160.882812 275 162.570312 C 275.089844 162.671875 275.195312 162.703125 275.324219 162.667969 C 275.511719 163.097656 275.695312 163.519531 275.855469 163.957031 C 276.496094 165.625 276.925781 167.367188 277.460938 169.066406 C 276.902344 168.417969 276.273438 167.847656 275.574219 167.351562 C 274.855469 166.828125 274.089844 166.382812 273.277344 166.019531 C 272.800781 165.800781 272.304688 165.621094 271.796875 165.480469 C 271.746094 165.347656 271.648438 165.261719 271.511719 165.222656 C 270.484375 164.914062 269.441406 164.835938 268.378906 164.988281 C 266.71875 164.515625 265.097656 163.933594 263.519531 163.242188 C 260.996094 162.253906 258.382812 161.832031 255.675781 161.96875 C 251.511719 162.097656 247.1875 163.03125 243.519531 165.074219 C 241.730469 166.074219 239.890625 167.492188 239.277344 169.527344 C 239.242188 169.621094 239.230469 169.714844 239.246094 169.8125 C 239.261719 169.90625 239.300781 169.996094 239.359375 170.070312 C 239.421875 170.148438 239.496094 170.207031 239.585938 170.242188 C 239.679688 170.28125 239.773438 170.292969 239.871094 170.28125 C 240.847656 170.183594 241.824219 170.574219 242.738281 170.867188 C 243.667969 171.160156 244.617188 171.371094 245.582031 171.503906 C 247.820312 171.875 250.058594 171.878906 252.292969 171.511719 C 254.523438 171.042969 256.710938 170.445312 258.867188 169.710938 C 260.84375 169.039062 262.773438 168.253906 264.660156 167.355469 C 266.761719 166.441406 268.84375 165.835938 271.132812 166.179688 C 271.75 166.316406 272.355469 166.503906 272.941406 166.742188 C 273.710938 167.074219 274.441406 167.480469 275.128906 167.964844 C 276.351562 168.824219 277.585938 169.960938 278.171875 171.371094 C 278.191406 171.414062 278.21875 171.453125 278.257812 171.484375 C 278.429688 171.9375 278.621094 172.382812 278.777344 172.835938 C 279.089844 173.707031 279.371094 174.59375 279.632812 175.480469 C 280.152344 177.261719 280.582031 179.0625 280.972656 180.871094 C 281.355469 182.546875 281.617188 184.242188 281.75 185.957031 C 281.863281 187.652344 281.859375 189.351562 281.9375 191.046875 C 281.949219 191.316406 281.960938 191.578125 281.976562 191.84375 C 281.007812 189.773438 279.585938 187.882812 278.269531 186.054688 C 277.199219 184.574219 276.164062 183.0625 275.132812 181.554688 C 275.136719 181.523438 275.136719 181.492188 275.132812 181.460938 C 274.957031 180.699219 274.769531 179.945312 274.550781 179.195312 C 274.292969 178.183594 273.898438 177.226562 273.363281 176.328125 C 272.882812 175.585938 272.082031 175.09375 271.261719 175.632812 C 270.773438 175.960938 270.460938 176.414062 270.328125 176.988281 C 270.242188 177.652344 270.390625 178.257812 270.78125 178.800781 C 271.214844 179.480469 271.761719 180.050781 272.421875 180.511719 C 272.949219 180.925781 273.539062 181.195312 274.199219 181.320312 C 274.25 181.4375 274.269531 181.574219 274.308594 181.695312 C 274.34375 181.789062 274.40625 181.863281 274.496094 181.910156 C 274.589844 181.957031 274.683594 181.964844 274.78125 181.933594 C 276.621094 184.617188 278.441406 187.300781 280.136719 190.0625 C 280.535156 190.707031 280.902344 191.371094 281.234375 192.050781 C 279.789062 190.84375 278.164062 189.894531 276.628906 188.796875 C 275.765625 188.195312 274.992188 187.503906 274.300781 186.714844 C 273.925781 186.273438 273.597656 185.804688 273.308594 185.304688 C 273.039062 184.820312 272.867188 184.289062 272.609375 183.804688 C 272.617188 183.699219 272.589844 183.601562 272.523438 183.515625 C 272.578125 182.625 272.367188 181.800781 271.890625 181.046875 C 271.40625 180.222656 270.550781 179.417969 269.511719 179.648438 C 269.273438 179.691406 269.046875 179.777344 268.839844 179.902344 C 268.628906 180.03125 268.453125 180.1875 268.300781 180.378906 C 268.148438 180.570312 268.039062 180.785156 267.964844 181.015625 C 267.890625 181.25 267.859375 181.484375 267.875 181.730469 C 268.015625 182.691406 268.492188 183.433594 269.3125 183.953125 C 269.769531 184.277344 270.273438 184.46875 270.824219 184.535156 C 271.222656 184.578125 271.609375 184.53125 271.984375 184.394531 C 272.34375 185.339844 272.851562 186.203125 273.503906 186.976562 C 274.203125 187.820312 275 188.5625 275.890625 189.199219 C 277.761719 190.574219 279.8125 191.671875 281.582031 193.1875 C 281.636719 193.234375 281.695312 193.257812 281.765625 193.253906 C 281.992188 193.835938 282.175781 194.429688 282.316406 195.035156 C 282.496094 195.816406 282.648438 196.605469 282.792969 197.394531 C 282.800781 198.957031 282.792969 200.519531 282.652344 202.074219 C 282.511719 203.632812 282.25 205.144531 282.109375 206.683594 C 281.972656 208.226562 281.828125 209.855469 281.664062 211.4375 C 281.613281 211.933594 281.5625 212.433594 281.488281 212.90625 C 281.464844 212.9375 281.441406 212.972656 281.429688 213.007812 C 281.421875 213.03125 281.414062 213.058594 281.410156 213.082031 C 281.328125 212.667969 281.222656 212.257812 281.09375 211.851562 C 280.675781 210.710938 280.070312 209.679688 279.277344 208.757812 C 278.464844 207.789062 277.597656 206.867188 276.679688 205.996094 C 276.175781 205.492188 275.671875 205.007812 275.175781 204.472656 L 274.976562 204.261719 C 274.324219 203.511719 273.640625 202.785156 272.996094 202.03125 C 272.1875 201.167969 271.546875 200.195312 271.074219 199.109375 C 270.59375 197.839844 270.367188 196.484375 269.886719 195.210938 C 269.398438 193.898438 268.765625 192.660156 267.984375 191.5 C 266.300781 189.019531 263.988281 186.960938 261.789062 184.941406 C 259.820312 183.121094 257.949219 181.207031 255.992188 179.382812 C 254.039062 177.554688 251.898438 176.019531 249.210938 175.460938 C 249.058594 175.441406 248.925781 175.480469 248.804688 175.574219 C 248.683594 175.667969 248.617188 175.789062 248.597656 175.941406 C 248.3125 178.359375 249.847656 180.789062 250.851562 182.878906 C 252.234375 185.757812 253.398438 188.695312 255.234375 191.335938 C 256.644531 193.277344 258.234375 195.058594 260 196.679688 C 261.699219 198.363281 263.582031 199.800781 265.648438 201.003906 C 267.457031 202.011719 269.621094 202.824219 271.722656 202.519531 C 271.734375 202.539062 271.753906 202.558594 271.769531 202.578125 C 272.164062 203.050781 272.574219 203.515625 272.984375 203.976562 C 273.582031 205.007812 274.582031 205.898438 275.375 206.742188 C 276.234375 207.625 277.085938 208.492188 277.90625 209.410156 C 279.527344 211.132812 280.539062 213.160156 280.945312 215.492188 C 280.835938 216.136719 280.722656 216.785156 280.601562 217.433594 C 280.320312 218.898438 279.996094 220.355469 279.648438 221.804688 C 278.925781 224.761719 278.0625 227.6875 277.09375 230.574219 C 275.230469 236.234375 273.019531 241.753906 270.453125 247.128906 C 269.699219 248.679688 268.9375 250.207031 268.0625 251.707031 C 267.191406 253.207031 266.285156 254.605469 265.511719 256.117188 C 265.394531 256.34375 265.726562 256.613281 265.921875 256.414062 C 268.007812 254.242188 269.480469 251.40625 270.867188 248.75 C 272.25 246.09375 273.480469 243.292969 274.648438 240.507812 C 277.046875 234.863281 279.023438 229.078125 280.574219 223.144531 C 280.761719 222.476562 280.898438 221.824219 281.054688 221.164062 C 282.453125 220.191406 283.90625 219.3125 285.417969 218.527344 C 289.167969 216.425781 291.75 215.128906 295.753906 213.890625 C 298.058594 213.140625 300.050781 211.894531 301.734375 210.148438 C 303.246094 208.585938 303.859375 206.683594 304.058594 204.558594 C 304.160156 203.53125 304.183594 202.5 304.261719 201.46875 C 304.359375 200.199219 304.453125 198.949219 304.429688 197.671875 C 304.375 194.703125 303.839844 191.796875 303.519531 188.851562 C 303.511719 188.632812 303.402344 188.5 303.191406 188.445312 C 302.980469 188.394531 302.820312 188.460938 302.710938 188.648438 C 301.691406 190.285156 301.453125 192.207031 300.742188 193.96875 C 299.960938 195.898438 298.679688 197.644531 297.484375 199.335938 C 295.128906 202.664062 292.5625 206.136719 291.398438 210.085938 C 291.03125 211.339844 290.8125 212.671875 290.308594 213.882812 C 290.21875 213.878906 290.148438 213.910156 290.089844 213.976562 C 289.296875 214.808594 288.445312 215.570312 287.527344 216.261719 C 286.59375 216.9375 285.605469 217.527344 284.621094 218.117188 C 283.429688 218.792969 282.296875 219.5625 281.226562 220.417969 C 281.390625 219.699219 281.550781 218.976562 281.710938 218.253906 C 281.835938 217.433594 281.96875 216.613281 282.109375 215.785156 Z M 285.363281 184.21875 C 285.550781 181.363281 285.5625 178.503906 285.964844 175.675781 C 286.378906 173.011719 287.175781 170.46875 288.355469 168.046875 C 289.457031 165.667969 290.753906 163.375 291.566406 160.886719 C 292.199219 158.921875 292.554688 156.90625 292.625 154.839844 L 292.753906 155.464844 C 292.929688 156.796875 293.035156 158.132812 293.066406 159.476562 C 293.183594 162.355469 293.4375 165.238281 293.414062 168.121094 C 293.398438 171.367188 292.964844 174.539062 291.695312 177.550781 C 291.070312 179.015625 290.335938 180.421875 289.492188 181.769531 C 288.761719 183.050781 287.914062 184.253906 286.949219 185.371094 C 286.300781 186.0625 285.570312 186.671875 284.90625 187.339844 C 285.140625 186.3125 285.292969 185.269531 285.363281 184.21875 Z M 280.59375 158.390625 C 280.488281 156.535156 280.308594 154.710938 280.195312 152.863281 C 280.117188 151.054688 280.136719 149.246094 280.246094 147.4375 C 280.34375 145.335938 280.488281 143.230469 280.78125 141.144531 C 281.03125 139.203125 281.449219 137.296875 282.035156 135.425781 C 282.816406 136.933594 283.332031 138.527344 283.582031 140.207031 C 283.941406 142.234375 284.191406 144.273438 284.335938 146.328125 C 284.589844 150.117188 283.9375 153.746094 282.375 157.210938 C 281.859375 158.425781 281.285156 159.613281 280.695312 160.789062 C 280.683594 159.988281 280.636719 159.179688 280.59375 158.390625 Z M 270.605469 143.636719 C 270.515625 143.636719 270.429688 143.621094 270.347656 143.589844 C 270.265625 143.5625 270.191406 143.523438 270.117188 143.484375 C 269.757812 143.238281 269.5 142.914062 269.34375 142.511719 C 268.902344 141.542969 268.800781 140.539062 269.035156 139.5 C 269.121094 139.074219 269.320312 138.707031 269.632812 138.40625 C 269.777344 138.277344 269.941406 138.191406 270.132812 138.15625 C 270.378906 138.089844 270.625 138.082031 270.875 138.128906 C 271.320312 138.242188 271.648438 138.5 271.863281 138.90625 C 272.113281 139.363281 272.253906 139.847656 272.292969 140.367188 C 272.398438 141.507812 272.082031 142.863281 271.175781 143.625 C 270.945312 143.625 270.765625 143.652344 270.605469 143.636719 Z M 266.746094 144.101562 C 266.230469 144.1875 265.828125 144.347656 265.308594 144.183594 C 264.820312 144.015625 264.40625 143.734375 264.066406 143.34375 C 263.402344 142.601562 262.867188 141.488281 263.097656 140.488281 C 263.199219 140.035156 263.453125 139.695312 263.859375 139.46875 C 264.050781 139.347656 264.257812 139.285156 264.484375 139.28125 C 264.625 139.289062 264.753906 139.324219 264.878906 139.390625 C 265.710938 139.859375 266.066406 141.144531 266.3125 142.003906 C 266.507812 142.695312 266.664062 143.394531 266.777344 144.105469 Z M 264.773438 152.203125 L 264.714844 152.378906 C 264.675781 152.496094 264.625 152.613281 264.566406 152.722656 L 264.507812 152.820312 L 264.421875 152.960938 C 263.507812 152.902344 262.652344 152.636719 261.859375 152.171875 C 261.453125 151.953125 261.222656 151.613281 261.167969 151.152344 C 261.152344 150.886719 261.1875 150.628906 261.273438 150.375 C 261.359375 150.089844 261.484375 149.820312 261.640625 149.570312 C 261.699219 149.476562 261.773438 149.390625 261.839844 149.304688 L 261.863281 149.292969 L 261.898438 149.277344 L 262.023438 149.171875 L 262.132812 149.085938 L 262.390625 148.976562 L 262.425781 148.960938 L 262.550781 148.9375 L 262.59375 148.917969 L 262.695312 148.917969 C 262.777344 148.925781 262.859375 148.9375 262.941406 148.953125 L 263.082031 149.003906 C 263.164062 149.03125 263.242188 149.066406 263.316406 149.109375 L 263.367188 149.136719 L 263.5 149.21875 C 263.578125 149.277344 263.652344 149.335938 263.722656 149.398438 C 263.757812 149.425781 263.789062 149.453125 263.820312 149.484375 L 263.890625 149.550781 C 264.03125 149.703125 264.160156 149.863281 264.277344 150.039062 C 264.289062 150.066406 264.304688 150.09375 264.3125 150.125 C 264.3125 150.125 264.34375 150.199219 264.355469 150.21875 C 264.398438 150.316406 264.441406 150.421875 264.484375 150.519531 C 264.539062 150.628906 264.585938 150.738281 264.628906 150.847656 C 264.636719 150.875 264.648438 150.898438 264.660156 150.921875 C 264.679688 150.972656 264.6875 151.039062 264.695312 151.09375 C 264.722656 151.210938 264.742188 151.332031 264.75 151.453125 L 264.757812 151.601562 C 264.757812 151.601562 264.757812 151.722656 264.753906 151.746094 C 264.75 151.863281 264.734375 151.980469 264.714844 152.097656 Z M 259.863281 168.191406 C 257.703125 168.984375 255.5 169.644531 253.253906 170.164062 C 250.976562 170.695312 248.675781 170.808594 246.355469 170.5 C 245.171875 170.367188 244.011719 170.121094 242.875 169.765625 C 242.132812 169.5 241.375 169.3125 240.59375 169.203125 C 241.277344 167.875 242.566406 166.921875 243.832031 166.167969 C 245.664062 165.148438 247.597656 164.386719 249.632812 163.878906 C 253.949219 162.75 258.859375 162.417969 263.074219 164.089844 C 264.21875 164.542969 265.375 165.015625 266.53125 165.382812 C 264.238281 166.089844 262.023438 167.394531 259.863281 168.191406 Z M 273.25 178.117188 C 273.421875 178.5625 273.566406 179.019531 273.699219 179.480469 C 273.796875 179.824219 273.882812 180.210938 273.976562 180.597656 C 273.660156 180.4375 273.363281 180.25 273.082031 180.035156 C 272.582031 179.679688 272.136719 179.257812 271.753906 178.78125 C 271.394531 178.386719 271.1875 177.925781 271.128906 177.398438 C 271.148438 176.964844 271.332031 176.628906 271.6875 176.382812 L 271.761719 176.347656 L 271.882812 176.296875 L 271.953125 176.265625 L 272.011719 176.273438 C 272.046875 176.289062 272.082031 176.300781 272.121094 176.3125 C 272.171875 176.339844 272.21875 176.371094 272.261719 176.40625 C 272.371094 176.488281 272.296875 176.425781 272.386719 176.53125 C 272.507812 176.667969 272.613281 176.8125 272.703125 176.964844 C 272.714844 176.984375 272.738281 177.042969 272.742188 177.054688 C 272.746094 177.066406 272.78125 177.140625 272.800781 177.183594 C 272.820312 177.230469 272.890625 177.394531 272.9375 177.5 C 273.082031 177.699219 273.171875 177.910156 273.25 178.117188 Z M 271.859375 183.4375 L 271.707031 183.5 L 271.511719 183.585938 C 271.421875 183.609375 271.332031 183.625 271.242188 183.636719 L 271.101562 183.644531 L 271.035156 183.640625 C 270.945312 183.636719 270.855469 183.628906 270.765625 183.609375 L 270.648438 183.589844 L 270.59375 183.574219 C 270.410156 183.519531 270.230469 183.445312 270.0625 183.355469 C 270.042969 183.347656 270.027344 183.335938 270.007812 183.324219 L 269.886719 183.25 C 269.804688 183.195312 269.722656 183.136719 269.644531 183.074219 C 269.566406 183.015625 269.511719 182.964844 269.449219 182.910156 C 269.386719 182.851562 269.425781 182.855469 269.398438 182.855469 L 269.289062 182.738281 C 269.234375 182.675781 269.183594 182.609375 269.132812 182.542969 C 269.085938 182.472656 269.078125 182.46875 269.054688 182.433594 C 269.046875 182.414062 269.039062 182.394531 269.027344 182.375 C 268.945312 182.226562 268.878906 182.070312 268.824219 181.910156 C 268.824219 181.910156 268.8125 181.878906 268.808594 181.867188 L 268.785156 181.746094 C 268.777344 181.710938 268.773438 181.667969 268.769531 181.628906 C 268.761719 181.617188 268.757812 181.601562 268.753906 181.585938 C 268.757812 181.507812 268.765625 181.4375 268.773438 181.363281 L 268.765625 181.34375 L 268.8125 181.21875 L 268.84375 181.148438 L 268.890625 181.082031 L 268.949219 180.992188 L 269.011719 180.921875 C 269.132812 180.796875 269.273438 180.695312 269.425781 180.613281 C 269.574219 180.527344 269.734375 180.484375 269.902344 180.484375 L 269.988281 180.492188 L 270.097656 180.507812 L 270.175781 180.53125 L 270.320312 180.589844 C 270.375 180.617188 270.429688 180.652344 270.480469 180.6875 C 270.570312 180.75 270.65625 180.820312 270.734375 180.890625 C 270.863281 181.023438 270.980469 181.164062 271.085938 181.316406 C 271.527344 181.953125 271.785156 182.660156 271.859375 183.4375 Z M 268.539062 195.5 C 269.039062 196.769531 269.320312 198.089844 269.75 199.382812 C 270.058594 200.265625 270.5 201.070312 271.082031 201.800781 C 267.308594 201.597656 263.871094 198.832031 261.21875 196.390625 C 259.605469 194.929688 258.128906 193.347656 256.78125 191.640625 C 254.824219 189.109375 253.480469 186.214844 252.214844 183.296875 C 251.703125 182.117188 251.082031 180.992188 250.5625 179.816406 C 250.074219 178.851562 249.765625 177.828125 249.636719 176.75 C 251.617188 177.382812 253.371094 178.851562 254.84375 180.238281 C 256.722656 182.003906 258.5 183.875 260.398438 185.628906 C 262.535156 187.597656 264.789062 189.554688 266.546875 191.878906 C 267.378906 192.992188 268.046875 194.199219 268.546875 195.496094 Z M 291.929688 211.453125 C 292.527344 209.523438 293.335938 207.691406 294.355469 205.953125 C 296.476562 202.332031 299.3125 199.125 301.191406 195.367188 C 301.957031 193.84375 302.1875 192.117188 302.773438 190.539062 C 303.019531 192.574219 303.210938 194.621094 303.261719 196.667969 C 303.246094 199 303.109375 201.328125 302.847656 203.648438 C 302.6875 205.699219 302.304688 207.605469 300.867188 209.15625 C 299.265625 210.886719 297.34375 212.117188 295.105469 212.847656 C 293.84375 213.230469 292.347656 213.226562 291.113281 213.699219 C 291.4375 212.96875 291.714844 212.21875 291.9375 211.449219 Z M 291.929688 211.453125 " fill-opacity="1" fill-rule="nonzero"/></g></g></g><g clip-path="url(#a8df777a6c)"><g clip-path="url(#c442cbd034)"><g clip-path="url(#766c1333b4)"><path fill="#cab48b" d="M 123.589844 161.398438 C 121.804688 160.101562 119.875 159.089844 117.796875 158.359375 C 115.949219 157.664062 114.050781 157.171875 112.101562 156.878906 C 109.527344 156.5 106.90625 156.355469 104.355469 156.960938 C 102.863281 157.320312 101.429688 157.878906 99.941406 158.257812 C 98.917969 158.519531 97.875 158.675781 96.820312 158.722656 C 96.316406 158.617188 95.808594 158.539062 95.292969 158.492188 C 95.066406 158.464844 94.902344 158.550781 94.792969 158.753906 C 94.316406 158.835938 93.847656 158.953125 93.390625 159.105469 C 92.496094 159.394531 91.644531 159.78125 90.839844 160.269531 C 90.097656 160.699219 89.421875 161.214844 88.804688 161.808594 C 89.453125 160.269531 90.007812 158.695312 90.722656 157.179688 C 90.964844 156.652344 91.222656 156.144531 91.523438 155.621094 C 91.636719 155.675781 91.738281 155.660156 91.828125 155.574219 C 93.609375 153.9375 96.246094 153.984375 98.316406 152.902344 C 99.304688 152.339844 100.15625 151.621094 100.878906 150.746094 C 101.691406 149.875 102.324219 148.886719 102.773438 147.78125 C 102.933594 147.800781 103.074219 147.753906 103.191406 147.644531 C 104.226562 147.804688 105.238281 147.703125 106.21875 147.332031 C 106.785156 147.097656 107.203125 146.703125 107.464844 146.148438 C 107.730469 145.453125 107.734375 144.757812 107.472656 144.058594 C 107.140625 142.949219 106.308594 142.019531 105.066406 142.113281 C 104.542969 142.195312 104.0625 142.386719 103.625 142.683594 C 103.1875 142.984375 102.835938 143.363281 102.574219 143.824219 C 101.949219 144.816406 101.6875 146.210938 102.273438 147.277344 C 102.207031 147.316406 102.160156 147.367188 102.128906 147.429688 C 101.125 149.5 99.527344 151.589844 97.328125 152.472656 C 95.679688 153.136719 93.683594 153.332031 92.214844 154.367188 L 92.664062 153.554688 L 93.71875 151.609375 C 94.109375 150.980469 94.449219 150.324219 94.742188 149.640625 C 94.792969 149.507812 94.777344 149.378906 94.699219 149.257812 C 95.546875 147.675781 96.304688 146.050781 97.199219 144.496094 C 97.734375 143.554688 98.339844 142.65625 99.015625 141.808594 C 99.804688 140.816406 100.769531 140.03125 101.613281 139.105469 C 101.679688 139.042969 101.707031 138.96875 101.699219 138.882812 C 102.742188 139.480469 104.214844 138.878906 105.035156 138.128906 C 105.976562 137.246094 106.726562 135.914062 106.554688 134.59375 C 106.410156 133.449219 105.257812 132.265625 104.03125 132.570312 C 102.804688 132.875 102.214844 134.21875 101.828125 135.246094 C 101.40625 136.363281 101.140625 137.519531 101.035156 138.710938 C 100.070312 139.425781 99.226562 140.269531 98.503906 141.230469 C 97.789062 142.125 97.152344 143.070312 96.59375 144.066406 C 95.652344 145.703125 94.84375 147.414062 94.035156 149.117188 C 94.191406 147.84375 94.210938 146.542969 94.382812 145.285156 C 94.582031 143.910156 94.957031 142.585938 95.511719 141.316406 C 95.789062 140.664062 96.097656 140.023438 96.421875 139.394531 C 96.675781 138.882812 97.003906 138.363281 97.261719 137.835938 C 97.757812 138.089844 98.265625 138.097656 98.773438 137.867188 C 99.308594 137.617188 99.722656 137.242188 100.023438 136.734375 C 100.726562 135.589844 100.980469 134.351562 100.785156 133.019531 C 100.710938 132.429688 100.488281 131.910156 100.109375 131.457031 C 99.632812 130.957031 99.054688 130.714844 98.367188 130.730469 C 96.917969 130.738281 96.097656 132.066406 95.796875 133.339844 C 95.492188 134.617188 95.695312 136.296875 96.664062 137.300781 C 95.96875 138.410156 95.375 139.566406 94.882812 140.777344 C 94.316406 142.039062 93.917969 143.347656 93.679688 144.707031 C 93.324219 146.855469 93.472656 149.070312 92.878906 151.15625 L 91.90625 152.933594 C 91.234375 154.171875 90.511719 155.382812 89.910156 156.648438 C 88.949219 158.679688 88.296875 160.835938 87.453125 162.914062 C 87.515625 162.046875 87.535156 161.175781 87.507812 160.304688 C 87.476562 159.292969 87.398438 158.28125 87.28125 157.277344 C 87.191406 156.507812 87.109375 155.695312 86.941406 154.925781 C 87.089844 154.78125 87.152344 154.609375 87.132812 154.402344 C 87.023438 152.835938 87.382812 151.257812 87.753906 149.742188 C 88.164062 148.023438 88.679688 146.324219 88.972656 144.582031 C 89.21875 142.757812 89.34375 140.925781 89.347656 139.085938 C 89.417969 137.054688 89.4375 135.019531 89.316406 132.988281 C 89.238281 130.714844 88.847656 128.5 88.144531 126.335938 C 88.105469 126.242188 88.039062 126.164062 87.957031 126.105469 C 87.875 126.042969 87.78125 126.007812 87.679688 125.996094 C 87.578125 125.984375 87.476562 125.996094 87.382812 126.035156 C 87.289062 126.078125 87.207031 126.136719 87.144531 126.21875 C 85.03125 129.621094 84.09375 133.503906 83.394531 137.40625 C 83 139.363281 82.820312 141.339844 82.863281 143.335938 C 82.949219 145.074219 83.261719 146.773438 83.792969 148.433594 C 85.035156 152.394531 86.660156 155.898438 86.859375 160.085938 C 86.960938 161.554688 86.902344 163.023438 86.691406 164.484375 L 86.382812 165.167969 C 85.960938 165.996094 85.597656 166.847656 85.273438 167.695312 C 84.59375 169.417969 84.011719 171.152344 83.464844 172.898438 C 82.929688 174.503906 82.511719 176.136719 82.207031 177.800781 C 81.933594 179.457031 81.757812 181.144531 81.585938 182.816406 C 81.554688 183.074219 81.515625 183.324219 81.484375 183.589844 C 81.445312 182.417969 81.328125 181.253906 81.132812 180.097656 C 80.9375 178.789062 80.878906 177.476562 80.953125 176.15625 C 81.089844 173.457031 81.339844 170.78125 81.289062 168.085938 C 81.230469 165.367188 80.75 162.726562 79.847656 160.160156 C 78.988281 157.636719 77.835938 155.199219 77.117188 152.628906 C 76.300781 149.660156 76.148438 146.625 76.234375 143.570312 C 76.257812 143.332031 76.160156 143.171875 75.9375 143.082031 C 75.71875 142.996094 75.535156 143.046875 75.386719 143.234375 C 74.039062 145.054688 73.683594 147.425781 73.359375 149.617188 C 72.972656 152.21875 72.578125 154.847656 72.285156 157.457031 C 71.902344 160.628906 71.738281 163.867188 72.398438 167.039062 C 73.054688 170.210938 74.449219 173.242188 76.046875 176.058594 C 76.863281 177.363281 77.800781 178.574219 78.867188 179.691406 C 79.308594 180.183594 79.691406 180.722656 80.003906 181.304688 C 80.148438 182.140625 80.222656 182.980469 80.230469 183.828125 C 80.230469 183.925781 80.25 184.019531 80.289062 184.109375 C 80.164062 184.902344 80.101562 185.699219 80.101562 186.5 C 80.039062 187.355469 79.953125 188.210938 79.871094 189.058594 C 79.671875 190.800781 79.5625 192.550781 79.542969 194.304688 C 79.546875 195.867188 79.667969 197.429688 79.675781 198.996094 C 79.6875 200.5625 79.640625 202.199219 79.726562 203.789062 C 79.757812 204.296875 79.789062 204.800781 79.832031 205.304688 C 79.757812 206.019531 79.765625 206.738281 79.855469 207.453125 C 79.910156 208.257812 79.980469 209.058594 80.058594 209.859375 C 80.152344 210.792969 80.265625 211.726562 80.390625 212.65625 C 79.496094 211.867188 78.53125 211.179688 77.492188 210.585938 C 76.691406 210.128906 75.917969 209.625 75.171875 209.078125 C 74.417969 208.476562 73.734375 207.796875 73.132812 207.046875 C 73.144531 206.949219 73.132812 206.859375 73.097656 206.769531 C 72.855469 206.230469 72.488281 205.800781 71.992188 205.472656 C 71.5625 204.269531 71.457031 202.941406 71.238281 201.683594 C 70.855469 199.734375 70.21875 197.871094 69.324219 196.097656 C 68.441406 194.234375 67.433594 192.425781 66.410156 190.644531 C 65.335938 188.890625 64.402344 187.070312 63.597656 185.179688 C 62.816406 183.191406 62.859375 180.96875 61.886719 179.042969 C 61.792969 178.839844 61.632812 178.753906 61.40625 178.785156 C 61.183594 178.816406 61.054688 178.945312 61.019531 179.167969 C 60.503906 181.710938 59.820312 184.210938 59.453125 186.78125 C 59.15625 189.292969 59.035156 191.8125 59.085938 194.335938 C 59.042969 195.546875 59.175781 196.734375 59.484375 197.902344 C 59.839844 199.046875 60.429688 200.058594 61.246094 200.9375 C 62.785156 202.746094 64.660156 204.078125 66.875 204.9375 C 67.816406 205.265625 68.808594 205.433594 69.761719 205.722656 C 70.621094 205.984375 71.699219 206.308594 72.113281 207.214844 C 72.183594 207.394531 72.3125 207.496094 72.503906 207.523438 C 73.5 209.101562 75.136719 210.179688 76.75 211.074219 C 78.070312 211.75 79.316406 212.539062 80.488281 213.445312 C 80.53125 213.726562 80.5625 214.007812 80.605469 214.292969 C 81.050781 217.269531 81.632812 220.230469 82.316406 223.167969 C 83.683594 229.066406 85.441406 234.84375 87.601562 240.5 C 88.21875 242.101562 88.890625 243.679688 89.628906 245.226562 C 90.347656 246.871094 91.246094 248.410156 92.320312 249.84375 C 92.417969 249.957031 92.527344 249.972656 92.65625 249.898438 C 92.78125 249.820312 92.820312 249.714844 92.765625 249.574219 C 92.183594 248.117188 91.441406 246.730469 90.789062 245.300781 C 90.136719 243.875 89.542969 242.476562 88.988281 241.035156 C 87.917969 238.238281 86.976562 235.390625 86.105469 232.523438 C 84.34375 226.851562 82.976562 221.082031 82.003906 215.21875 C 81.746094 213.589844 81.535156 211.941406 81.347656 210.304688 C 81.261719 209.503906 81.1875 208.703125 81.121094 207.898438 C 81.101562 207.855469 81.117188 207.792969 81.113281 207.734375 C 81.726562 205.445312 82.925781 203.515625 84.707031 201.949219 C 85.597656 201.117188 86.546875 200.34375 87.460938 199.539062 C 88.375 198.734375 89.378906 197.976562 90.078125 197.003906 C 90.363281 196.738281 90.652344 196.472656 90.933594 196.203125 C 91.117188 196.03125 91.304688 195.851562 91.480469 195.667969 C 93.324219 196.113281 95.335938 195.679688 97.070312 194.964844 C 99.355469 193.992188 101.464844 192.71875 103.394531 191.152344 C 105.332031 189.691406 107.109375 188.058594 108.726562 186.25 C 110.734375 183.957031 112.179688 181.292969 113.675781 178.648438 C 114.355469 177.445312 115.128906 176.300781 115.777344 175.078125 C 116.425781 173.855469 116.960938 172.613281 116.929688 171.253906 C 116.90625 171.105469 116.832031 170.984375 116.714844 170.894531 C 116.59375 170.804688 116.457031 170.769531 116.308594 170.785156 C 113.476562 171.101562 111.132812 172.554688 108.949219 174.304688 C 106.679688 176.09375 104.457031 177.929688 102.167969 179.691406 C 99.878906 181.453125 97.59375 183.238281 95.851562 185.519531 C 94.332031 187.492188 93.476562 189.742188 92.582031 192.039062 C 92.054688 193.175781 91.320312 194.15625 90.378906 194.980469 C 89.675781 195.671875 88.9375 196.335938 88.222656 197.015625 L 87.941406 197.265625 C 87.390625 197.742188 86.835938 198.21875 86.265625 198.671875 C 85.289062 199.445312 84.355469 200.273438 83.46875 201.152344 C 82.605469 201.972656 81.90625 202.910156 81.363281 203.964844 C 81.164062 204.402344 81 204.855469 80.863281 205.316406 C 80.855469 205.273438 80.835938 205.234375 80.8125 205.195312 C 80.734375 203.332031 80.734375 201.429688 80.746094 199.5625 C 80.75 198.066406 80.699219 196.582031 80.644531 195.085938 C 80.613281 193.34375 80.695312 191.605469 80.894531 189.871094 L 80.933594 189.433594 C 81.273438 188.085938 81.722656 186.78125 82.292969 185.519531 C 82.382812 185.535156 82.464844 185.515625 82.539062 185.460938 C 84.414062 184.117188 86.5625 183.238281 88.527344 182.035156 C 89.453125 181.492188 90.296875 180.84375 91.058594 180.085938 C 91.8125 179.359375 92.421875 178.53125 92.890625 177.59375 C 93.632812 177.921875 94.375 177.933594 95.128906 177.625 C 96.015625 177.292969 96.664062 176.695312 97.066406 175.835938 C 97.207031 175.507812 97.257812 175.164062 97.214844 174.8125 C 97.171875 174.457031 97.046875 174.136719 96.832031 173.851562 C 96.617188 173.566406 96.347656 173.351562 96.019531 173.210938 C 95.691406 173.070312 95.351562 173.023438 94.996094 173.066406 C 94.480469 173.160156 94.046875 173.402344 93.691406 173.789062 C 92.882812 174.585938 92.453125 175.554688 92.410156 176.691406 C 92.332031 176.78125 92.289062 176.882812 92.285156 177 C 92.007812 177.453125 91.800781 177.914062 91.507812 178.34375 C 91.179688 178.820312 90.8125 179.257812 90.40625 179.667969 C 89.621094 180.421875 88.753906 181.0625 87.804688 181.597656 C 86.160156 182.554688 84.449219 183.363281 82.871094 184.453125 C 83.195312 183.914062 83.5625 183.40625 83.933594 182.902344 C 84.917969 181.578125 85.914062 180.265625 86.933594 178.96875 C 88.011719 177.589844 89.15625 176.257812 90.285156 174.914062 C 90.320312 174.921875 90.355469 174.925781 90.390625 174.925781 C 91.167969 175.539062 92.382812 174.753906 92.996094 174.226562 C 93.964844 173.398438 94.90625 172.210938 95.121094 170.929688 C 95.234375 170.308594 95.085938 169.757812 94.675781 169.277344 C 94.507812 169.046875 94.292969 168.871094 94.035156 168.75 C 93.777344 168.632812 93.503906 168.585938 93.21875 168.605469 C 92.046875 168.734375 91.242188 170.035156 90.742188 170.976562 C 90.402344 171.621094 90.152344 172.296875 89.984375 173.007812 C 89.832031 173.511719 89.820312 174.015625 89.949219 174.527344 C 87.804688 177.082031 85.546875 179.5625 83.535156 182.21875 C 83.046875 182.859375 82.605469 183.527344 82.199219 184.222656 C 82.46875 182.519531 82.617188 180.800781 82.859375 179.085938 C 83.339844 175.554688 84.5 172.203125 85.738281 168.875 C 86.09375 167.925781 86.476562 166.980469 86.886719 166.050781 C 87.171875 165.410156 87.511719 164.789062 87.820312 164.148438 C 87.851562 164.121094 87.875 164.089844 87.894531 164.054688 C 88.605469 162.703125 89.980469 161.664062 91.289062 160.933594 C 91.996094 160.539062 92.734375 160.21875 93.503906 159.972656 C 94.070312 159.796875 94.648438 159.667969 95.238281 159.589844 C 97.292969 160.027344 99.28125 160.664062 101.207031 161.503906 C 103.128906 162.347656 105.007812 163.289062 106.957031 164.085938 C 108.90625 164.878906 110.945312 165.789062 113.019531 166.414062 C 115.152344 167.050781 117.328125 167.324219 119.550781 167.234375 C 120.746094 167.21875 121.929688 167.09375 123.101562 166.855469 C 124.109375 166.628906 125.171875 166.316406 126.207031 166.511719 C 126.292969 166.523438 126.375 166.515625 126.457031 166.484375 C 126.535156 166.457031 126.605469 166.410156 126.667969 166.351562 C 126.726562 166.289062 126.769531 166.21875 126.796875 166.136719 C 126.824219 166.054688 126.832031 165.972656 126.820312 165.886719 C 126.410156 163.984375 125.074219 162.523438 123.589844 161.398438 Z M 103.0625 146.613281 C 103.046875 146.570312 103.027344 146.527344 103.007812 146.484375 C 102.980469 146.386719 102.960938 146.285156 102.945312 146.183594 C 102.925781 146.132812 102.933594 146.066406 102.925781 146.007812 L 102.921875 145.941406 L 102.910156 145.917969 C 102.910156 145.808594 102.917969 145.699219 102.933594 145.589844 C 102.9375 145.542969 102.945312 145.492188 102.957031 145.441406 L 102.988281 145.292969 L 103.023438 145.167969 C 103.035156 145.117188 103.054688 145.074219 103.070312 145.023438 C 103.085938 144.972656 103.160156 144.792969 103.21875 144.683594 L 103.269531 144.574219 L 103.332031 144.472656 C 103.394531 144.371094 103.460938 144.269531 103.539062 144.175781 C 103.601562 144.089844 103.671875 144.007812 103.738281 143.925781 L 103.777344 143.886719 L 103.894531 143.773438 C 103.976562 143.699219 104.0625 143.628906 104.152344 143.566406 L 104.265625 143.484375 L 104.335938 143.453125 C 104.425781 143.414062 104.507812 143.378906 104.597656 143.339844 L 104.734375 143.28125 L 104.832031 143.238281 C 104.90625 143.21875 104.980469 143.203125 105.054688 143.195312 L 105.175781 143.179688 L 105.210938 143.164062 L 105.230469 143.15625 C 105.308594 143.164062 105.390625 143.171875 105.476562 143.1875 L 105.523438 143.203125 C 105.570312 143.222656 105.617188 143.242188 105.667969 143.261719 L 105.679688 143.285156 L 105.785156 143.351562 C 105.824219 143.382812 105.863281 143.414062 105.898438 143.445312 C 105.898438 143.445312 105.914062 143.476562 105.921875 143.492188 C 105.992188 143.574219 106.054688 143.660156 106.113281 143.75 C 106.125 143.777344 106.136719 143.804688 106.148438 143.828125 C 106.15625 143.851562 106.199219 143.949219 106.226562 144.011719 C 106.351562 144.292969 106.4375 144.585938 106.484375 144.890625 C 106.5 145.003906 106.511719 145.113281 106.511719 145.226562 C 106.511719 145.292969 106.507812 145.359375 106.496094 145.421875 C 106.488281 145.464844 106.480469 145.511719 106.476562 145.554688 C 106.453125 145.65625 106.417969 145.75 106.371094 145.84375 L 106.335938 145.894531 L 106.214844 146.0625 L 106.191406 146.074219 L 106.15625 146.085938 L 106.050781 146.1875 C 106 146.207031 105.960938 146.257812 105.914062 146.289062 L 105.835938 146.320312 L 105.914062 146.289062 C 105.441406 146.546875 104.9375 146.710938 104.40625 146.78125 C 104 146.84375 103.589844 146.882812 103.175781 146.890625 C 103.140625 146.8125 103.109375 146.734375 103.078125 146.660156 Z M 102.183594 136.371094 C 102.503906 135.425781 102.917969 134.257812 103.710938 133.609375 C 103.964844 133.355469 104.265625 133.277344 104.609375 133.375 C 105.074219 133.523438 105.402344 133.824219 105.589844 134.273438 C 105.992188 135.203125 105.421875 136.339844 104.8125 137.066406 C 104.433594 137.53125 103.964844 137.871094 103.402344 138.082031 C 103.160156 138.167969 102.910156 138.203125 102.652344 138.1875 C 102.355469 138.140625 102.066406 138.0625 101.785156 137.957031 L 101.707031 137.945312 C 101.839844 137.410156 102.003906 136.882812 102.183594 136.371094 Z M 96.503906 134.011719 C 96.554688 133.464844 96.71875 132.953125 96.992188 132.472656 C 97.113281 132.261719 97.269531 132.078125 97.457031 131.921875 L 97.589844 131.820312 L 97.648438 131.796875 L 97.679688 131.78125 C 97.738281 131.753906 97.796875 131.726562 97.855469 131.707031 L 97.976562 131.652344 C 98.21875 131.589844 98.464844 131.589844 98.710938 131.660156 C 98.816406 131.683594 98.925781 131.722656 99.027344 131.769531 C 99.027344 131.769531 99.105469 131.804688 99.117188 131.808594 C 99.164062 131.835938 99.207031 131.867188 99.25 131.898438 C 99.25 131.898438 99.328125 131.964844 99.347656 131.980469 C 99.367188 131.996094 99.410156 132.050781 99.421875 132.0625 C 99.457031 132.105469 99.492188 132.152344 99.523438 132.199219 C 99.53125 132.222656 99.539062 132.246094 99.550781 132.265625 C 99.601562 132.367188 99.648438 132.46875 99.6875 132.574219 C 99.707031 132.625 99.730469 132.675781 99.75 132.726562 C 99.773438 132.777344 99.765625 132.757812 99.773438 132.773438 C 99.785156 132.796875 99.792969 132.820312 99.804688 132.847656 C 100.027344 133.890625 99.902344 134.894531 99.4375 135.855469 C 99.402344 135.921875 99.371094 135.992188 99.332031 136.054688 C 99.296875 136.121094 99.332031 136.054688 99.332031 136.054688 L 99.28125 136.152344 C 99.207031 136.273438 99.125 136.390625 99.039062 136.503906 L 98.90625 136.660156 L 98.828125 136.738281 C 98.738281 136.816406 98.644531 136.890625 98.546875 136.953125 L 98.253906 137.082031 L 98.214844 137.097656 L 98.03125 137.125 L 97.980469 137.144531 L 97.929688 137.136719 L 97.734375 137.113281 C 97.613281 137.097656 97.496094 137.078125 97.378906 137.066406 C 96.578125 136.28125 96.386719 135.039062 96.503906 134.011719 Z M 83.675781 144.140625 C 83.558594 142.203125 83.6875 140.285156 84.0625 138.386719 C 84.371094 136.457031 84.777344 134.550781 85.28125 132.664062 C 85.6875 130.972656 86.355469 129.386719 87.28125 127.914062 C 87.609375 129.421875 87.832031 130.949219 87.949219 132.492188 C 88.089844 134.535156 88.113281 136.582031 88.03125 138.632812 C 88.023438 140.492188 87.90625 142.34375 87.679688 144.1875 C 87.414062 145.898438 86.917969 147.566406 86.5 149.246094 C 86.242188 150.226562 86.039062 151.21875 85.890625 152.222656 C 84.84375 149.625 83.882812 146.960938 83.675781 144.140625 Z M 71.125 205.007812 C 70.378906 204.710938 69.617188 204.464844 68.835938 204.277344 C 67.945312 204.0625 67.089844 203.742188 66.277344 203.320312 C 65.230469 202.742188 64.265625 202.054688 63.382812 201.253906 C 62.476562 200.488281 61.730469 199.59375 61.140625 198.570312 C 60.628906 197.492188 60.371094 196.355469 60.363281 195.160156 C 60.316406 193.957031 60.402344 192.769531 60.398438 191.554688 C 60.398438 190.265625 60.378906 188.992188 60.5 187.710938 C 60.726562 185.417969 61.089844 183.148438 61.589844 180.902344 C 61.933594 182.234375 62.039062 183.636719 62.433594 184.960938 C 63.035156 186.972656 64.117188 188.839844 65.160156 190.648438 C 67.195312 194.242188 69.375 197.84375 70.328125 201.925781 C 70.523438 202.972656 70.78125 204.003906 71.101562 205.019531 Z M 93.199219 193.65625 C 93.804688 192.703125 94.101562 191.621094 94.523438 190.589844 C 94.949219 189.488281 95.480469 188.4375 96.113281 187.4375 C 97.605469 185.148438 99.738281 183.414062 101.855469 181.738281 C 104.128906 179.9375 106.457031 178.21875 108.675781 176.347656 C 110.765625 174.597656 113.089844 172.609375 115.816406 172.003906 C 115.628906 172.902344 115.304688 173.746094 114.84375 174.539062 C 114.285156 175.605469 113.621094 176.617188 113.007812 177.652344 C 111.585938 180.0625 110.316406 182.527344 108.570312 184.734375 C 107.066406 186.558594 105.382812 188.203125 103.523438 189.664062 C 101.742188 191.164062 99.820312 192.453125 97.753906 193.527344 C 96.015625 194.488281 94.152344 194.980469 92.164062 195 C 92.542969 194.585938 92.878906 194.136719 93.179688 193.664062 Z M 78.015625 177.398438 C 77.113281 176.1875 76.347656 174.894531 75.722656 173.519531 C 74.976562 172.054688 74.34375 170.539062 73.832031 168.972656 C 71.953125 163.078125 73.304688 157.039062 74.089844 151.082031 C 74.265625 149.757812 74.449219 148.433594 74.75 147.128906 C 74.816406 146.84375 74.886719 146.523438 74.972656 146.195312 C 74.878906 147.941406 74.980469 149.679688 75.273438 151.40625 C 75.722656 154.0625 76.824219 156.605469 77.761719 159.128906 C 78.761719 161.625 79.394531 164.214844 79.65625 166.894531 C 79.785156 169.550781 79.753906 172.210938 79.574219 174.867188 C 79.46875 176.367188 79.507812 177.867188 79.6875 179.363281 C 79.160156 178.710938 78.5625 178.070312 78.015625 177.398438 Z M 93.90625 174.683594 C 94.140625 174.347656 94.441406 174.09375 94.808594 173.914062 C 95.128906 173.773438 95.429688 173.800781 95.71875 173.996094 C 95.800781 174.050781 95.878906 174.113281 95.957031 174.179688 L 95.964844 174.203125 C 96.003906 174.242188 96.039062 174.28125 96.074219 174.324219 L 96.140625 174.410156 C 96.140625 174.410156 96.15625 174.445312 96.164062 174.460938 C 96.167969 174.476562 96.226562 174.605469 96.257812 174.675781 L 96.269531 174.773438 C 96.277344 174.8125 96.28125 174.851562 96.28125 174.890625 L 96.296875 174.917969 C 96.289062 174.992188 96.277344 175.066406 96.269531 175.136719 C 96.261719 175.203125 96.269531 175.136719 96.269531 175.136719 L 96.230469 175.253906 C 96.203125 175.324219 96.171875 175.394531 96.136719 175.464844 L 96.113281 175.511719 L 96.046875 175.617188 C 96.003906 175.6875 95.957031 175.753906 95.90625 175.816406 L 95.816406 175.921875 L 95.78125 175.964844 C 95.652344 176.089844 95.519531 176.207031 95.375 176.3125 L 95.257812 176.394531 L 95.183594 176.429688 C 95.105469 176.464844 95.027344 176.5 94.945312 176.53125 C 94.855469 176.570312 94.757812 176.613281 94.667969 176.652344 L 94.539062 176.707031 L 94.507812 176.722656 L 94.464844 176.742188 C 94.367188 176.765625 94.265625 176.78125 94.167969 176.792969 L 94.007812 176.808594 L 93.976562 176.824219 C 93.871094 176.820312 93.765625 176.8125 93.660156 176.796875 L 93.535156 176.773438 C 93.519531 176.761719 93.5 176.753906 93.480469 176.753906 C 93.339844 176.703125 93.203125 176.640625 93.070312 176.570312 C 93.199219 175.875 93.476562 175.246094 93.90625 174.683594 Z M 90.816406 174.308594 L 90.804688 174.285156 L 90.832031 174.273438 C 90.882812 174.21875 90.898438 174.15625 90.886719 174.082031 C 90.875 174.011719 90.835938 173.957031 90.773438 173.925781 L 90.773438 173.851562 C 90.773438 173.796875 90.777344 173.742188 90.78125 173.6875 C 90.792969 173.566406 90.8125 173.449219 90.832031 173.332031 C 90.929688 172.824219 91.085938 172.332031 91.296875 171.863281 C 91.503906 171.367188 91.765625 170.898438 92.082031 170.460938 C 92.21875 170.273438 92.367188 170.09375 92.535156 169.929688 C 92.609375 169.859375 92.6875 169.789062 92.769531 169.722656 L 92.90625 169.625 C 92.9375 169.605469 92.96875 169.589844 93.003906 169.585938 C 93.078125 169.542969 93.15625 169.511719 93.238281 169.480469 C 93.296875 169.480469 93.351562 169.476562 93.40625 169.460938 L 93.503906 169.46875 L 93.527344 169.457031 C 93.574219 169.472656 93.621094 169.488281 93.664062 169.511719 L 93.730469 169.550781 C 94.074219 169.78125 94.257812 170.101562 94.277344 170.519531 C 94.265625 170.710938 94.234375 170.898438 94.183594 171.085938 C 94.097656 171.347656 93.992188 171.597656 93.867188 171.835938 C 93.597656 172.332031 93.273438 172.789062 92.882812 173.199219 C 92.503906 173.625 92.0625 173.972656 91.5625 174.246094 C 91.382812 174.34375 91.195312 174.402344 90.992188 174.417969 C 90.9375 174.417969 90.882812 174.410156 90.828125 174.398438 C 90.828125 174.367188 90.824219 174.335938 90.816406 174.308594 Z M 123.597656 165.570312 C 122.679688 165.789062 121.75 165.9375 120.808594 166.015625 C 118.503906 166.222656 116.230469 166.039062 113.988281 165.472656 C 111.910156 164.835938 109.878906 164.078125 107.894531 163.199219 C 105.941406 162.386719 104.039062 161.476562 102.117188 160.605469 C 101.109375 160.152344 100.070312 159.707031 99.011719 159.339844 C 100.234375 159.128906 101.433594 158.835938 102.617188 158.457031 C 103.898438 158.039062 105.207031 157.753906 106.546875 157.609375 C 107.824219 157.5 109.101562 157.523438 110.375 157.675781 C 114.496094 158.074219 118.320312 159.355469 121.847656 161.523438 C 123.28125 162.4375 124.867188 163.660156 125.515625 165.304688 C 124.859375 165.328125 124.214844 165.417969 123.578125 165.578125 Z M 123.597656 165.570312 " fill-opacity="1" fill-rule="nonzero"/></g></g></g><g clip-path="url(#a3eb9d09d3)"><g clip-path="url(#30b5002228)"><g clip-path="url(#e53cb3e430)"><path fill="#cab48b" d="M 221.425781 293.28125 C 176.4375 312.789062 123.925781 298.136719 96.566406 258.4375 C 96.453125 258.289062 96.414062 258.125 96.441406 257.9375 C 96.472656 257.753906 96.5625 257.609375 96.714844 257.503906 C 96.871094 257.398438 97.039062 257.363281 97.21875 257.402344 C 97.402344 257.441406 97.542969 257.539062 97.640625 257.695312 C 124.632812 296.890625 176.46875 311.351562 220.90625 292.082031 C 228.058594 289.007812 234.769531 285.160156 241.039062 280.539062 C 247.308594 275.921875 252.96875 270.648438 258.027344 264.730469 C 258.144531 264.589844 258.292969 264.515625 258.472656 264.5 C 258.65625 264.484375 258.8125 264.535156 258.953125 264.65625 C 259.089844 264.773438 259.164062 264.921875 259.179688 265.101562 C 259.195312 265.28125 259.140625 265.441406 259.023438 265.578125 C 253.902344 271.574219 248.164062 276.914062 241.816406 281.589844 C 235.46875 286.269531 228.671875 290.167969 221.425781 293.28125 Z M 221.425781 293.28125 " fill-opacity="1" fill-rule="nonzero"/></g></g></g><g clip-path="url(#ecd3488896)"><g clip-path="url(#40c36284f5)"><g clip-path="url(#7c4c05f87a)"><path fill="#cab48b" d="M 256.847656 132.328125 C 256.5625 132.453125 256.3125 132.402344 256.097656 132.175781 C 228.28125 100.144531 183.34375 91.15625 141.621094 109.25 C 129.507812 114.503906 122.429688 118.996094 114.558594 126.402344 C 114.429688 126.539062 114.269531 126.609375 114.078125 126.609375 C 113.890625 126.609375 113.730469 126.539062 113.601562 126.402344 C 113.472656 126.261719 113.414062 126.097656 113.425781 125.910156 C 113.441406 125.71875 113.523438 125.566406 113.667969 125.445312 C 122.695312 116.929688 130.558594 112.621094 141.101562 108.050781 C 183.359375 89.726562 228.890625 98.855469 257.089844 131.273438 C 257.207031 131.410156 257.257812 131.570312 257.242188 131.75 C 257.226562 131.929688 257.152344 132.082031 257.015625 132.199219 C 256.964844 132.25 256.910156 132.292969 256.847656 132.328125 Z M 256.847656 132.328125 " fill-opacity="1" fill-rule="nonzero"/></g></g></g><g clip-path="url(#f80f903623)"><path fill="#ffffff" d="M 89.390625 252.496094 L 283.308594 252.496094 L 283.308594 337.5 L 89.390625 337.5 Z M 89.390625 252.496094 " fill-opacity="1" fill-rule="nonzero"/></g><g clip-path="url(#c026c1f8ff)"><path fill="#cab48b" d="M 187.457031 272.375 C 187.457031 272.375 186.070312 274.589844 185.867188 278.710938 C 185.675781 282.820312 187.457031 284.910156 187.457031 284.910156 C 187.457031 284.910156 189.234375 282.820312 189.03125 278.710938 C 188.828125 274.589844 187.457031 272.375 187.457031 272.375 Z M 190.054688 287.308594 C 191.664062 281.570312 196.371094 279.078125 202.226562 279.527344 C 202.226562 279.527344 201.148438 286.285156 193.773438 286.480469 C 193.773438 286.480469 197.234375 284.484375 197.972656 282.292969 C 194.136719 282.867188 191.824219 285.171875 190.054688 287.308594 Z M 187.457031 286.929688 C 187.457031 286.929688 183.269531 282.683594 184.007812 275.738281 C 184.734375 268.796875 187.457031 266.84375 187.457031 266.84375 C 187.457031 266.84375 190.167969 268.796875 190.890625 275.738281 C 191.628906 282.683594 187.457031 286.929688 187.457031 286.929688 Z M 184.847656 287.308594 C 183.234375 281.570312 178.527344 279.078125 172.675781 279.527344 C 172.675781 279.527344 173.75 286.285156 181.125 286.480469 C 181.125 286.480469 177.664062 284.484375 176.925781 282.292969 C 180.761719 282.867188 183.074219 285.171875 184.84375 287.308594 Z M 172.84375 292.4375 C 173.34375 291.867188 173.945312 291.429688 174.546875 291.109375 C 179.171875 288.640625 184.378906 291.613281 187.453125 295.34375 C 190.515625 291.613281 195.722656 288.640625 200.351562 291.109375 C 200.953125 291.429688 201.554688 291.867188 202.054688 292.4375 C 198.933594 293.425781 196.347656 292.945312 193.875 291.636719 C 193.332031 291.832031 192.640625 292.175781 191.945312 292.738281 C 194.738281 294.355469 196.769531 295.238281 201.078125 294.734375 C 204.4375 294.332031 206.945312 292.839844 206.945312 292.839844 C 200.875 285.839844 194.816406 287.550781 191.105469 289.832031 C 190.085938 289.191406 188.316406 288.515625 187.453125 288.640625 C 186.582031 288.515625 184.824219 289.191406 183.800781 289.832031 C 180.082031 287.550781 174.023438 285.839844 167.953125 292.839844 C 167.953125 292.839844 170.460938 294.332031 173.820312 294.734375 C 178.128906 295.238281 180.160156 294.355469 182.949219 292.738281 C 182.257812 292.175781 181.566406 291.832031 181.023438 291.636719 C 178.5625 292.945312 175.964844 293.425781 172.84375 292.4375 Z M 189.257812 291.152344 C 188.113281 292.082031 187.453125 292.839844 187.453125 292.839844 C 187.453125 292.839844 186.785156 292.082031 185.652344 291.152344 C 186.582031 290.613281 187.453125 290.40625 187.453125 290.40625 C 187.453125 290.40625 188.316406 290.613281 189.257812 291.152344 Z M 189.257812 291.152344 " fill-opacity="1" fill-rule="evenodd"/></g><g clip-path="url(#1ad1169f3f)"><path fill="#21223b" d="M 237.550781 180.945312 C 234.679688 161.007812 218.902344 144.910156 198.773438 141.574219 C 198.960938 142.054688 199.082031 142.402344 199.230469 142.730469 C 201.15625 147.023438 203.070312 151.316406 205.035156 155.585938 C 205.351562 156.277344 205.8125 156.949219 206.355469 157.480469 C 211.347656 162.390625 214.832031 168.199219 216.777344 174.917969 C 219.144531 183.097656 219.523438 191.421875 218.246094 199.808594 C 215.769531 216.09375 206.746094 227.328125 191.570312 233.511719 C 182.777344 237.097656 173.554688 237.242188 164.261719 235.984375 C 161.160156 235.558594 158.078125 234.949219 154.964844 234.632812 C 153.832031 234.515625 153.390625 234.113281 153.359375 233.128906 C 153.332031 232.308594 153.289062 231.441406 153.515625 230.675781 C 154.121094 228.628906 154.714844 226.550781 155.589844 224.605469 C 156.308594 223.011719 157.035156 221.417969 157.757812 219.824219 L 157.761719 219.824219 C 157.808594 219.710938 157.863281 219.597656 157.917969 219.480469 C 161.242188 212.179688 164.613281 204.902344 167.941406 197.597656 C 168.027344 197.40625 168.121094 197.242188 168.222656 197.101562 L 170.707031 191.710938 L 170.6875 191.710938 C 175.585938 181.089844 180.4375 170.570312 185.394531 159.824219 L 186.386719 157.675781 L 189.277344 164.117188 C 190.234375 166.253906 191.1875 168.382812 192.144531 170.511719 C 195.324219 177.597656 198.476562 184.628906 201.652344 191.710938 C 201.648438 191.710938 201.648438 191.710938 201.644531 191.710938 L 204.109375 197.199219 L 204.113281 197.207031 C 204.1875 197.320312 204.253906 197.453125 204.320312 197.601562 C 205.285156 199.808594 206.265625 202.011719 207.253906 204.214844 L 207.730469 205.28125 C 208.558594 207.125 209.390625 208.972656 210.21875 210.816406 C 210.398438 211.222656 210.585938 211.617188 210.832031 212.144531 C 211.046875 211.847656 211.1875 211.707031 211.265625 211.53125 C 214.84375 204.003906 216.824219 196.113281 216.644531 187.742188 C 216.625 187.027344 216.40625 186.273438 216.109375 185.613281 C 208.414062 168.453125 200.6875 151.308594 193 134.148438 C 192.613281 133.292969 192.152344 132.96875 191.234375 133.039062 C 190.273438 133.113281 189.433594 132.914062 188.855469 134.179688 C 176.394531 161.488281 163.894531 188.785156 151.324219 216.050781 C 148.996094 221.101562 146.394531 226.027344 143.808594 230.949219 C 141.417969 235.496094 137.617188 238.128906 132.480469 238.761719 C 131.457031 238.886719 130.4375 239.082031 129.414062 239.105469 C 127.328125 239.160156 125.238281 239.121094 123.128906 239.121094 L 123.128906 242.039062 C 123.613281 242.0625 124.015625 242.101562 124.417969 242.101562 C 141.128906 242.101562 157.84375 242.117188 174.558594 242.101562 C 184.515625 242.089844 194.316406 241.03125 203.8125 237.863281 C 218.042969 233.113281 228.503906 224.125 234.421875 210.234375 C 238.425781 200.835938 238.996094 190.980469 237.550781 180.945312 Z M 237.550781 180.945312 " fill-opacity="1" fill-rule="nonzero"/></g><g clip-path="url(#3a948827d0)"><path fill="#21223b" d="M 123.101562 141.976562 C 123.101562 140.957031 123.101562 140.101562 123.101562 139.042969 C 142.816406 139.222656 162.476562 138.789062 182.445312 139.34375 C 181.496094 141.386719 180.699219 143.164062 179.828125 144.90625 C 179.722656 145.109375 179.1875 145.207031 178.871094 145.175781 C 171.523438 144.449219 164.292969 145.253906 157.101562 146.730469 C 155.976562 146.964844 155.582031 147.339844 155.585938 148.558594 C 155.632812 165.066406 155.628906 181.574219 155.59375 198.082031 C 155.589844 198.992188 155.371094 199.972656 154.984375 200.796875 C 151.9375 207.246094 148.941406 213.722656 145.667969 220.054688 C 144.417969 222.476562 142.492188 224.554688 140.839844 226.757812 C 140.515625 227.191406 140.019531 227.5 139.445312 228 C 139.445312 226.707031 139.445312 225.65625 139.445312 224.601562 C 139.445312 208.585938 139.453125 192.574219 139.453125 176.5625 C 139.453125 169.878906 139.476562 163.191406 139.421875 156.507812 C 139.40625 154.488281 139.234375 152.464844 138.992188 150.460938 C 138.453125 146.003906 137.007812 143.535156 130.878906 142.28125 C 129.242188 141.941406 127.511719 142.046875 125.828125 141.980469 C 124.972656 141.949219 124.113281 141.976562 123.101562 141.976562 Z M 123.101562 141.976562 " fill-opacity="1" fill-rule="nonzero"/></g><g clip-path="url(#e5db490eb6)"><path fill="#21223b" d="M 231.632812 220.429688 C 233.113281 223.324219 234.519531 226.070312 235.933594 228.816406 C 236.101562 229.144531 236.320312 229.449219 236.492188 229.78125 C 239.648438 235.832031 244.742188 238.765625 251.457031 239.105469 C 251.574219 239.113281 251.691406 239.152344 251.902344 239.199219 C 251.902344 240.113281 251.902344 241.03125 251.902344 242.027344 C 236.894531 242.027344 221.949219 242.027344 206.925781 242.027344 C 206.925781 241.078125 206.925781 240.195312 206.925781 239.246094 C 208.582031 239.027344 210.253906 238.875 211.898438 238.578125 C 214.632812 238.09375 217.074219 237.125 218.242188 234.28125 C 218.34375 234.035156 218.605469 233.839844 218.832031 233.667969 C 223.566406 230.011719 227.65625 225.730469 231.1875 220.917969 C 231.300781 220.757812 231.449219 220.625 231.632812 220.429688 Z M 231.632812 220.429688 " fill-opacity="1" fill-rule="nonzero"/></g><path fill="#21223b" d="M 157.914062 219.476562 C 157.859375 219.589844 157.808594 219.707031 157.757812 219.824219 L 157.753906 219.824219 Z M 157.914062 219.476562 " fill-opacity="1" fill-rule="nonzero"/><g clip-path="url(#70f1723c1b)"><path fill="#ffffff" d="M 159.089844 71.230469 L 211.597656 71.230469 L 211.597656 122.339844 L 159.089844 122.339844 Z M 159.089844 71.230469 " fill-opacity="1" fill-rule="nonzero"/></g><g clip-path="url(#cadd9fde83)"><path fill="#cab48b" d="M 187.496094 102.007812 C 194.351562 102.007812 200.226562 104.351562 202.699219 105.503906 C 203.910156 97.070312 207.910156 91.03125 207.910156 91.03125 C 204.167969 90.617188 203.757812 93.902344 203.757812 93.902344 C 202.695312 92.035156 200.855469 92.507812 199.972656 92.878906 C 200.601562 93.4375 201.003906 94.261719 201.003906 95.1875 C 201.003906 96.867188 199.679688 98.226562 198.054688 98.226562 C 196.5625 98.226562 195.332031 97.085938 195.132812 95.609375 C 195.15625 95.609375 195.175781 95.609375 195.199219 95.609375 C 196.058594 95.609375 196.753906 94.914062 196.753906 94.054688 C 196.753906 93.199219 196.058594 92.503906 195.199219 92.503906 C 194.339844 92.503906 193.644531 93.199219 193.644531 94.054688 C 193.644531 94.691406 194.027344 95.238281 194.574219 95.480469 C 194.042969 96.464844 193.023438 97.132812 191.851562 97.132812 C 190.132812 97.132812 188.742188 95.695312 188.742188 93.925781 C 188.742188 92.152344 190.132812 90.714844 191.851562 90.714844 C 192.09375 90.714844 192.328125 90.746094 192.550781 90.796875 C 191.550781 87.929688 188.472656 88.839844 188.472656 88.839844 C 190.480469 85.371094 187.496094 82.542969 187.496094 82.542969 C 187.496094 82.542969 184.511719 85.371094 186.519531 88.839844 C 186.519531 88.839844 183.441406 87.929688 182.441406 90.796875 C 182.664062 90.746094 182.898438 90.714844 183.140625 90.714844 C 184.859375 90.714844 186.25 92.152344 186.25 93.925781 C 186.25 95.695312 184.859375 97.132812 183.140625 97.132812 C 181.96875 97.132812 180.949219 96.464844 180.417969 95.480469 C 180.964844 95.238281 181.347656 94.691406 181.347656 94.054688 C 181.347656 93.199219 180.648438 92.503906 179.792969 92.503906 C 178.933594 92.503906 178.238281 93.199219 178.238281 94.054688 C 178.238281 94.914062 178.933594 95.609375 179.792969 95.609375 C 179.816406 95.609375 179.835938 95.609375 179.859375 95.609375 C 179.660156 97.085938 178.429688 98.226562 176.9375 98.226562 C 175.308594 98.226562 173.992188 96.867188 173.992188 95.1875 C 173.992188 94.261719 174.390625 93.4375 175.019531 92.878906 C 174.136719 92.507812 172.296875 92.035156 171.234375 93.902344 C 171.234375 93.902344 170.824219 90.617188 167.082031 91.03125 C 167.082031 91.03125 171.082031 97.070312 172.289062 105.503906 C 174.765625 104.351562 180.640625 102.007812 187.496094 102.007812 " fill-opacity="1" fill-rule="nonzero"/></g><g clip-path="url(#4dd6176de4)"><path fill="#cab48b" d="M 187.496094 102.960938 C 181.132812 102.960938 175.558594 104.84375 172.453125 106.152344 C 172.582031 106.777344 172.691406 107.417969 172.789062 108.078125 C 175.179688 106.960938 180.863281 104.695312 187.496094 104.695312 C 194.128906 104.695312 199.8125 106.960938 202.203125 108.078125 C 202.300781 107.417969 202.410156 106.777344 202.535156 106.152344 C 199.433594 104.84375 193.859375 102.960938 187.496094 102.960938 " fill-opacity="1" fill-rule="nonzero"/></g><path fill="#cab48b" d="M 120.527344 289.300781 C 117.25 288.464844 114.28125 286.023438 113.53125 282.625 C 113.003906 280.226562 113.945312 277.917969 114.257812 277.03125 C 114.558594 276.859375 114.839844 276.707031 114.878906 276.6875 C 118.375 275.265625 123.222656 277.40625 124.011719 281.558594 C 124.023438 281.625 124.632812 281.089844 124.542969 281.171875 C 126.855469 279.070312 129.40625 277.441406 132.050781 276.210938 C 133.679688 284.171875 129.230469 291.519531 120.527344 289.300781 Z M 164.332031 276.007812 C 161.328125 270.691406 147.820312 267.097656 135.078125 273 C 134.710938 271.039062 133.96875 269.105469 132.847656 267.28125 C 121.707031 249.109375 88.648438 253.773438 68.367188 269.269531 C 61.867188 274.234375 55.863281 279.996094 48.488281 283.679688 C 30.695312 292.554688 20.523438 283.265625 23.3125 276.554688 C 23.507812 276.433594 23.699219 276.308594 23.765625 276.277344 C 26.554688 274.945312 29.96875 275.25 32.933594 275.535156 C 33.679688 274.769531 34.410156 273.988281 35.082031 273.15625 C 35.144531 273.082031 35.207031 273.003906 35.265625 272.929688 C 35.289062 272.898438 35.40625 272.742188 35.367188 272.796875 C 35.386719 272.769531 35.40625 272.742188 35.414062 272.734375 C 35.464844 272.667969 35.511719 272.601562 35.5625 272.535156 C 35.621094 272.453125 35.683594 272.375 35.746094 272.292969 C 35.699219 272.351562 35.710938 272.332031 35.742188 272.292969 C 32.425781 271.976562 28.777344 271.710938 25.828125 273.519531 C 23.832031 274.746094 21.746094 276.917969 20.636719 278.988281 C 17.941406 284.011719 22.546875 288.707031 27.238281 289.824219 C 41.226562 293.152344 53.582031 281.949219 63.691406 273.902344 C 84.539062 257.308594 115.191406 253.433594 127.703125 267.617188 C 129.667969 269.847656 130.980469 272.335938 131.707031 274.8125 C 130.101562 275.792969 128.527344 276.945312 127.003906 278.273438 C 126.414062 275.332031 123.761719 273.320312 120.820312 273.0625 C 113.789062 272.4375 104.398438 286.503906 115.5625 291.820312 C 122.105469 294.9375 127.914062 290.519531 131.859375 285.5625 C 134.394531 282.378906 135.527344 278.644531 135.304688 274.914062 C 147.429688 270.839844 160.421875 274.519531 161.988281 280.90625 C 162.605469 283.429688 161.261719 286.257812 160.699219 287.386719 C 159.117188 288.484375 157.101562 289.15625 154.722656 289.078125 C 154.101562 289.054688 151.738281 292.300781 151.714844 292.300781 C 159 292.546875 167.9375 282.386719 164.332031 276.007812 " fill-opacity="1" fill-rule="nonzero"/><path fill="#cab48b" d="M 254.117188 289.300781 C 257.394531 288.464844 260.363281 286.023438 261.113281 282.625 C 261.640625 280.226562 260.703125 277.917969 260.390625 277.03125 C 260.089844 276.859375 259.808594 276.707031 259.765625 276.6875 C 256.269531 275.265625 251.421875 277.40625 250.632812 281.558594 C 250.621094 281.625 250.011719 281.089844 250.101562 281.171875 C 247.789062 279.070312 245.238281 277.441406 242.59375 276.210938 C 240.96875 284.171875 245.414062 291.519531 254.117188 289.300781 Z M 210.3125 276.007812 C 213.320312 270.691406 226.824219 267.097656 239.566406 273 C 239.933594 271.039062 240.675781 269.105469 241.796875 267.28125 C 252.9375 249.109375 285.996094 253.773438 306.28125 269.269531 C 312.777344 274.234375 318.78125 279.996094 326.160156 283.679688 C 343.949219 292.554688 354.125 283.265625 351.332031 276.554688 C 351.136719 276.433594 350.945312 276.308594 350.878906 276.277344 C 348.089844 274.945312 344.675781 275.25 341.710938 275.535156 C 340.964844 274.769531 340.234375 273.988281 339.5625 273.15625 C 339.5 273.082031 339.441406 273.003906 339.378906 272.929688 C 339.359375 272.898438 339.238281 272.742188 339.277344 272.796875 C 339.257812 272.769531 339.238281 272.742188 339.230469 272.734375 C 339.183594 272.667969 339.132812 272.601562 339.085938 272.535156 C 339.023438 272.453125 338.960938 272.375 338.898438 272.292969 C 338.949219 272.351562 338.933594 272.332031 338.90625 272.292969 C 342.21875 271.976562 345.867188 271.710938 348.816406 273.519531 C 350.816406 274.746094 352.898438 276.917969 354.007812 278.988281 C 356.703125 284.011719 352.101562 288.707031 347.40625 289.824219 C 333.417969 293.152344 321.066406 281.949219 310.957031 273.902344 C 290.105469 257.308594 259.453125 253.433594 246.941406 267.617188 C 244.976562 269.847656 243.664062 272.335938 242.941406 274.8125 C 244.542969 275.792969 246.121094 276.945312 247.640625 278.273438 C 248.230469 275.332031 250.882812 273.320312 253.824219 273.0625 C 260.855469 272.4375 270.246094 286.503906 259.082031 291.820312 C 252.539062 294.9375 246.730469 290.519531 242.785156 285.5625 C 240.25 282.378906 239.117188 278.644531 239.339844 274.914062 C 227.214844 270.839844 214.222656 274.519531 212.65625 280.90625 C 212.039062 283.429688 213.382812 286.257812 213.945312 287.386719 C 215.527344 288.484375 217.542969 289.15625 219.921875 289.078125 C 220.542969 289.054688 222.90625 292.300781 222.933594 292.300781 C 215.648438 292.546875 206.707031 282.386719 210.3125 276.007812 " fill-opacity="1" fill-rule="nonzero"/></svg>